<svg width="57" height="55" viewBox="0 0 57 55" fill="none" xmlns="http://www.w3.org/2000/svg">
<path d="M6.624 26.36C4.704 26.36 3.252 25.82 2.268 24.74C1.284 23.636 0.792 22.064 0.792 20.024V18.584H4.536V20.312C4.536 21.944 5.22 22.76 6.588 22.76C7.26 22.76 7.764 22.568 8.1 22.184C8.46 21.776 8.64 21.128 8.64 20.24C8.64 19.184 8.4 18.26 7.92 17.468C7.44 16.652 6.552 15.68 5.256 14.552C3.624 13.112 2.484 11.816 1.836 10.664C1.188 9.488 0.864 8.168 0.864 6.704C0.864 4.712 1.368 3.176 2.376 2.096C3.384 0.991999 4.848 0.439999 6.768 0.439999C8.664 0.439999 10.092 0.991999 11.052 2.096C12.036 3.176 12.528 4.736 12.528 6.776V7.82H8.784V6.524C8.784 5.66 8.616 5.036 8.28 4.652C7.944 4.244 7.452 4.04 6.804 4.04C5.484 4.04 4.824 4.844 4.824 6.452C4.824 7.364 5.064 8.216 5.544 9.008C6.048 9.8 6.948 10.76 8.244 11.888C9.9 13.328 11.04 14.636 11.664 15.812C12.288 16.988 12.6 18.368 12.6 19.952C12.6 22.016 12.084 23.6 11.052 24.704C10.044 25.808 8.568 26.36 6.624 26.36ZM14.8705 0.799998H19.8385L23.6905 15.884H23.7625V0.799998H27.2905V26H23.2225L18.4705 7.604H18.3985V26H14.8705V0.799998ZM33.2938 0.799998H38.6578L42.7618 26H38.8018L38.0818 20.996V21.068H33.5818L32.8618 26H29.1898L33.2938 0.799998ZM37.6138 17.648L35.8498 5.192H35.7778L34.0498 17.648H37.6138ZM44.683 0.799998H50.515C52.483 0.799998 53.959 1.328 54.943 2.384C55.927 3.44 56.419 4.988 56.419 7.028V9.512C56.419 11.552 55.927 13.1 54.943 14.156C53.959 15.212 52.483 15.74 50.515 15.74H48.643V26H44.683V0.799998ZM50.515 12.14C51.163 12.14 51.643 11.96 51.955 11.6C52.291 11.24 52.459 10.628 52.459 9.764V6.776C52.459 5.912 52.291 5.3 51.955 4.94C51.643 4.58 51.163 4.4 50.515 4.4H48.643V12.14H50.515ZM6.624 54.36C4.704 54.36 3.252 53.82 2.268 52.74C1.284 51.636 0.792 50.064 0.792 48.024V46.584H4.536V48.312C4.536 49.944 5.22 50.76 6.588 50.76C7.26 50.76 7.764 50.568 8.1 50.184C8.46 49.776 8.64 49.128 8.64 48.24C8.64 47.184 8.4 46.26 7.92 45.468C7.44 44.652 6.552 43.68 5.256 42.552C3.624 41.112 2.484 39.816 1.836 38.664C1.188 37.488 0.864 36.168 0.864 34.704C0.864 32.712 1.368 31.176 2.376 30.096C3.384 28.992 4.848 28.44 6.768 28.44C8.664 28.44 10.092 28.992 11.052 30.096C12.036 31.176 12.528 32.736 12.528 34.776V35.82H8.784V34.524C8.784 33.66 8.616 33.036 8.28 32.652C7.944 32.244 7.452 32.04 6.804 32.04C5.484 32.04 4.824 32.844 4.824 34.452C4.824 35.364 5.064 36.216 5.544 37.008C6.048 37.8 6.948 38.76 8.244 39.888C9.9 41.328 11.04 42.636 11.664 43.812C12.288 44.988 12.6 46.368 12.6 47.952C12.6 50.016 12.084 51.6 11.052 52.704C10.044 53.808 8.568 54.36 6.624 54.36ZM14.8705 28.8H18.8305V39.06H23.0785V28.8H27.0385V54H23.0785V42.66H18.8305V54H14.8705V28.8ZM35.7117 54.36C33.7677 54.36 32.2797 53.808 31.2477 52.704C30.2157 51.6 29.6997 50.04 29.6997 48.024V34.776C29.6997 32.76 30.2157 31.2 31.2477 30.096C32.2797 28.992 33.7677 28.44 35.7117 28.44C37.6557 28.44 39.1437 28.992 40.1757 30.096C41.2077 31.2 41.7237 32.76 41.7237 34.776V48.024C41.7237 50.04 41.2077 51.6 40.1757 52.704C39.1437 53.808 37.6557 54.36 35.7117 54.36ZM35.7117 50.76C37.0797 50.76 37.7637 49.932 37.7637 48.276V34.524C37.7637 32.868 37.0797 32.04 35.7117 32.04C34.3437 32.04 33.6597 32.868 33.6597 34.524V48.276C33.6597 49.932 34.3437 50.76 35.7117 50.76ZM47.3572 32.4H43.2172V28.8H55.4572V32.4H51.3172V54H47.3572V32.4Z" fill="black"/>
</svg>
